<?xml version="1.0" encoding="UTF-8" standalone="no"?> <svg width="10" height="10" viewBox="0 0 100 100" fill="none" xmlns="http://www.w3.org/2000/svg">
<circle cx="50.5" cy="49.5" r="60" fill="gray"/>
<path d="M60.9941 52.5195L36.543 43.2031H39.9883L35.6816 56H32.3066L28.0352 43.2031H31.4541L33.9941 52.5195ZM51.6426 49.8652C51.6426 51.1133 51.4111 52.2178 50.9482 53.1787C50.4854 54.1396 49.8262 54.8809 48.9707 55.4023C48.1211 55.918 47.1514 56.1758 46.0615 56.1758C44.9717 56.1758 44.0049 55.9268 43.1611 55.4287C42.3174 54.9248 41.6582 54.207 41.1836 53.2754C40.7148 52.3438 40.4688 51.2744 40.4453 50.0674V49.3467C40.4453 48.0928 40.6738 46.9883 41.1309 46.0332C41.5938 45.0723 42.2529 44.3311 43.1084 43.8096C43.9697 43.2881 44.9482 43.0273 46.0439 43.0273C47.1279 43.0273 48.0947 43.2852 48.9443 43.8008C49.7939 44.3164 50.4531 45.0518 50.9219 46.0068C51.3965 46.9561 51.6367 48.0459 51.6426 49.2764V49.8652ZM48.5049 49.3291C48.5049 48.0576 48.291 47.0938 47.8633 46.4375C47.4414 45.7754 46.835 45.4443 46.0439 45.4443C44.4971 45.4443 43.6797 46.6045 43.5918 48.9248L43.583 49.8652C43.583 51.1191 43.791 52.083 44.207 52.7568C44.623 53.4307 45.2412 53.7676 46.0615 53.7676C46.8408 53.7676 47.4414 53.4365 47.8633 52.7744C48.2852 52.1123 48.499 51.1602 48.5049 49.918V49.3291ZM62.5234 45.585H58.6826V56H55.5977V45.585H51.8271V43.2031H62.5234V45.585ZM71.7695 50.5771H66.918V53.627H72.6484V56H63.833V43.2031H72.666V45.585H66.918V48.2832H71.7695V50.5771Z" fill="white"/>
</svg>
