<?xml version="1.0" encoding="UTF-8" standalone="no"?> <svg width="60" height="60" viewBox="0 0 100 100" fill="none" xmlns="http://www.w3.org/2000/svg">
<rect width="60" height="60" fill="none"/>
<circle cx="49.5" cy="50.5" r="37.5" stroke="gray" stroke-width="12"/>
<path d="M50 9L50.8981 11.7639H53.8042L51.4531 13.4721L52.3511 16.2361L50 14.5279L47.6489 16.2361L48.5469 13.4721L46.1958 11.7639H49.1019L50 9Z" fill="white"/>
<path d="M50 84L50.8981 86.7639H53.8042L51.4531 88.4721L52.3511 91.2361L50 89.5279L47.6489 91.2361L48.5469 88.4721L46.1958 86.7639H49.1019L50 84Z" fill="white"/>
<path d="M12 48L12.8981 50.7639H15.8042L13.4531 52.4721L14.3511 55.2361L12 53.5279L9.64886 55.2361L10.5469 52.4721L8.19577 50.7639H11.1019L12 48Z" fill="white"/>
<path d="M87 48L87.8981 50.7639H90.8042L88.4531 52.4721L89.3511 55.2361L87 53.5279L84.6489 55.2361L85.5469 52.4721L83.1958 50.7639H86.1019L87 48Z" fill="white"/>
<path d="M83 29L83.8981 31.7639H86.8042L84.4531 33.4721L85.3511 36.2361L83 34.5279L80.6489 36.2361L81.5469 33.4721L79.1958 31.7639H82.1019L83 29Z" fill="white"/>
<path d="M16 29L16.8981 31.7639H19.8042L17.4531 33.4721L18.3511 36.2361L16 34.5279L13.6489 36.2361L14.5469 33.4721L12.1958 31.7639H15.1019L16 29Z" fill="white"/>
<path d="M31 14L31.8981 16.7639H34.8042L32.4531 18.4721L33.3511 21.2361L31 19.5279L28.6489 21.2361L29.5469 18.4721L27.1958 16.7639H30.1019L31 14Z" fill="white"/>
<path d="M69 15L69.8981 17.7639H72.8042L70.4531 19.4721L71.3511 22.2361L69 20.5279L66.6489 22.2361L67.5469 19.4721L65.1958 17.7639H68.1019L69 15Z" fill="white"/>
<path d="M17 67L17.8981 69.7639H20.8042L18.4531 71.4721L19.3511 74.2361L17 72.5279L14.6489 74.2361L15.5469 71.4721L13.1958 69.7639H16.1019L17 67Z" fill="white"/>
<path d="M31 79L31.8981 81.7639H34.8042L32.4531 83.4721L33.3511 86.2361L31 84.5279L28.6489 86.2361L29.5469 83.4721L27.1958 81.7639H30.1019L31 79Z" fill="white"/>
<path d="M68 79L68.8981 81.7639H71.8042L69.4531 83.4721L70.3511 86.2361L68 84.5279L65.6489 86.2361L66.5469 83.4721L64.1958 81.7639H67.1019L68 79Z" fill="white"/>
<path d="M81 67L81.8981 69.7639H84.8042L82.4531 71.4721L83.3511 74.2361L81 72.5279L78.6489 74.2361L79.5469 71.4721L77.1958 69.7639H80.1019L81 67Z" fill="white"/>
<path d="M32.9941 54.5195L35.543 45.2031H38.9883L34.6816 58H31.3066L27.0352 45.2031H30.4541L32.9941 54.5195ZM50.6426 51.8652C50.6426 53.1133 50.4111 54.2178 49.9482 55.1787C49.4854 56.1396 48.8262 56.8809 47.9707 57.4023C47.1211 57.918 46.1514 58.1758 45.0615 58.1758C43.9717 58.1758 43.0049 57.9268 42.1611 57.4287C41.3174 56.9248 40.6582 56.207 40.1836 55.2754C39.7148 54.3438 39.4688 53.2744 39.4453 52.0674V51.3467C39.4453 50.0928 39.6738 48.9883 40.1309 48.0332C40.5938 47.0723 41.2529 46.3311 42.1084 45.8096C42.9697 45.2881 43.9482 45.0273 45.0439 45.0273C46.1279 45.0273 47.0947 45.2852 47.9443 45.8008C48.7939 46.3164 49.4531 47.0518 49.9219 48.0068C50.3965 48.9561 50.6367 50.0459 50.6426 51.2764V51.8652ZM47.5049 51.3291C47.5049 50.0576 47.291 49.0938 46.8633 48.4375C46.4414 47.7754 45.835 47.4443 45.0439 47.4443C43.4971 47.4443 42.6797 48.6045 42.5918 50.9248L42.583 51.8652C42.583 53.1191 42.791 54.083 43.207 54.7568C43.623 55.4307 44.2412 55.7676 45.0615 55.7676C45.8408 55.7676 46.4414 55.4365 46.8633 54.7744C47.2852 54.1123 47.499 53.1602 47.5049 51.918V51.3291ZM61.5234 47.585H57.6826V58H54.5977V47.585H50.8271V45.2031H61.5234V47.585ZM70.7695 52.5771H65.918V55.627H71.6484V58H62.833V45.2031H71.666V47.585H65.918V50.2832H70.7695V52.5771Z" fill="#1B1B1B"/>
<line x1="33" y1="35" x2="65" y2="35" stroke="gray" stroke-width="4" stroke-linecap="round" stroke-linejoin="round"/>
<line x1="33" y1="67" x2="65" y2="67" stroke="gray" stroke-width="4" stroke-linecap="round" stroke-linejoin="round"/>
</svg>
